<svg xmlns="http://www.w3.org/2000/svg" xmlns:xlink="http://www.w3.org/1999/xlink" version="1.1" x="0px" y="0px" viewBox="0 0 100 125" enable-background="new 0 0 100 100" xml:space="preserve">
    <path d="M64.646,20.354c-0.467-0.465,0.235-1.178,0.707-0.707l5,5c0.475,0.478-0.247,1.165-0.707,0.707L64.646,20.354z   M87.887,77.335l-1.613,1.935c-1.297,1.559-3.553,1.897-5.252,0.793l-12.625-8.205c-2.924-1.899-5.64-4.102-8.104-6.566l-9.56-9.559  c0,0-3.073,2.605-4.766,3.906l-12.686,9.898l8.133,9.76c0.331,0.396,0.305,0.982-0.061,1.348L38.09,83.91  c-0.642,0.642-1.637,0.771-2.422,0.313l-10.02-5.845c-0.384-0.224-0.574-0.675-0.466-1.106l0.375-1.705  c-0.738,0.575-1.7-0.377-1.122-1.123l-1.707,0.375c-0.431,0.108-0.882-0.082-1.106-0.465l-5.845-10.021  c-0.458-0.785-0.329-1.778,0.313-2.422l3.264-3.265c0.366-0.365,0.95-0.393,1.347-0.062l9.76,8.136l9.898-12.688  c1.301-1.691,3.907-4.765,3.907-4.765l-9.558-9.558c-2.466-2.466-4.667-5.182-6.567-8.106L19.935,18.98  c-1.104-1.699-0.764-3.956,0.793-5.253l1.935-1.613c0.766-0.638,1.885-0.615,2.623,0.054l29.358,26.605l11.25-10.761  c1.191-1.14,2.972-1.512,4.472-0.824c1.072,0.492,1.959,1.392,2.446,2.446c0.688,1.5,0.314,3.278-0.824,4.471L61.227,45.357  l26.605,29.358C88.502,75.451,88.525,76.57,87.887,77.335z M57,39l4,4l4.126-4.126c0.536-0.536,0.724-1.328,0.483-2.047v-0.001  c-0.384-1.147-1.278-2.049-2.437-2.435h-0.001c-0.719-0.24-1.511-0.052-2.047,0.483L57,39z M50,54l-4-4l-2.293,2.293  c-0.391,0.391-0.391,1.023,0,1.414l2.586,2.586c0.391,0.391,1.024,0.391,1.414,0L50,54z M79.646,35.354  c0.461,0.458,1.184-0.232,0.707-0.707l-5-5c-0.464-0.467-1.177,0.234-0.707,0.707L79.646,35.354z M73.38,28.62L74,28  c1.323-1.323-0.677-3.323-2-2l-0.62,0.62C72.262,27.158,72.816,27.696,73.38,28.62z"/>
    <text x="0" y="115" fill="#000000" font-size="5px" font-weight="bold" font-family="'Helvetica Neue', Helvetica, Arial-Unicode, Arial, Sans-serif">Created by Setyo Ari Wibowo</text>
    <text x="0" y="120" fill="#000000" font-size="5px" font-weight="bold" font-family="'Helvetica Neue', Helvetica, Arial-Unicode, Arial, Sans-serif">from the Noun Project</text>
</svg>